<?xml version="1.0" encoding="UTF-8" standalone="no"?>
<svg
   xmlns:dc="http://purl.org/dc/elements/1.1/"
   xmlns:cc="http://creativecommons.org/ns#"
   xmlns:rdf="http://www.w3.org/1999/02/22-rdf-syntax-ns#"
   xmlns:svg="http://www.w3.org/2000/svg"
   xmlns="http://www.w3.org/2000/svg"
   xmlns:sodipodi="http://sodipodi.sourceforge.net/DTD/sodipodi-0.dtd"
   xmlns:inkscape="http://www.inkscape.org/namespaces/inkscape"
   height="48"
   viewBox="0 96 960 960"
   width="48"
   version="1.1"
   id="svg4"
   sodipodi:docname="person_money_rb_fill.svg"
   inkscape:version="0.92.4 (5da689c313, 2019-01-14)"
   inkscape:export-filename="C:\Users\nao\Downloads\person_money_rb.png"
   inkscape:export-xdpi="142.222"
   inkscape:export-ydpi="142.222">
  <metadata
     id="metadata10">
    <rdf:RDF>
      <cc:Work
         rdf:about="">
        <dc:format>image/svg+xml</dc:format>
        <dc:type
           rdf:resource="http://purl.org/dc/dcmitype/StillImage" />
      </cc:Work>
    </rdf:RDF>
  </metadata>
  <defs
     id="defs8" />
  <sodipodi:namedview
     pagecolor="#ffffff"
     bordercolor="#666666"
     borderopacity="1"
     objecttolerance="10"
     gridtolerance="10"
     guidetolerance="10"
     inkscape:pageopacity="0"
     inkscape:pageshadow="2"
     inkscape:window-width="1066"
     inkscape:window-height="599"
     id="namedview6"
     showgrid="false"
     inkscape:zoom="4.9166667"
     inkscape:cx="22.576272"
     inkscape:cy="28.067797"
     inkscape:window-x="458"
     inkscape:window-y="485"
     inkscape:window-maximized="0"
     inkscape:current-layer="svg4" />
  <path
     style="fill:#000000;stroke-width:1"
     d="m 461.01695,571 c -44,0 -80,-14 -108,-42 -28,-28 -42,-64 -42,-108 0,-44 14,-80 42,-108 28,-28 64,-42 108,-42 44,0 80,14 108,42 28,28 42,64 42,108 0,44 -14,80 -42,108 -28,28 -64,42 -108,42 z"
     id="path824"
     inkscape:connector-curvature="0" />
  <path
     style="fill:#000000;stroke-width:1"
     d="m 141.01695,892 v -94 c 0,-23.33334 5.83333,-44.33334 17.5,-63 11.66666,-18.66666 28.5,-33 50.5,-43 48,-21.33334 92.5,-36.66666 133.5,-46 41,-9.33334 80.5,-14 118.5,-14 h 23 c -14,34 -20.33334,78.83334 -19,134.5 1.33334,55.66666 12.66666,97.5 34,125.5 z"
     id="path820"
     inkscape:connector-curvature="0" />
  <path
     style="stroke-width:0.36903739"
     inkscape:connector-curvature="0"
     d="m 678.42459,865.14908 h 24.7255 v -17.71379 q 21.77317,-2.21423 34.68946,-13.46986 12.91636,-11.25565 12.91636,-31.92174 0,-19.18994 -11.0221,-31.92174 -11.02165,-12.73179 -37.44474,-23.43388 -20.91222,-8.85689 -29.95364,-15.8686 -9.04142,-7.0117 -9.04142,-18.08282 0,-9.59498 7.38077,-15.31505 7.38071,-5.72009 19.92797,-5.72009 10.70214,0 19.00544,5.16653 8.30339,5.16652 13.8389,16.23765 l 21.77323,-9.96402 q -7.06965,-15.57153 -17.00487,-22.91648 -9.93485,-7.34458 -24.32731,-9.57984 v -16.95469 h -24.72551 v 16.97573 q -19.92805,3.32134 -30.26108,15.15673 -10.33304,11.83577 -10.33304,28.24575 0,19.33387 12.17823,30.95854 12.17825,11.62468 37.64179,21.58869 21.0352,8.85689 29.3385,16.6266 8.30337,7.76972 8.30337,18.80099 0,11.07112 -8.48793,17.52928 -8.48784,6.45814 -23.80291,6.45814 -14.2079,0 -24.90997,-8.11881 -10.70206,-8.11883 -14.76149,-22.88032 l -22.8803,7.74978 q 7.38071,18.82091 19.74348,29.523 12.36273,10.70208 27.49331,14.52125 z m 12.96723,50.92716 q -32.52626,0 -61.12662,-12.17824 -28.60045,-12.17823 -50.00458,-33.58239 -21.40415,-21.40417 -33.58238,-49.95364 -12.17825,-28.54947 -12.17825,-61.07568 0,-32.89526 12.17825,-61.49566 12.17823,-28.60039 33.52448,-49.83961 21.34615,-21.23883 49.92258,-33.5824 28.57681,-12.34319 61.13404,-12.34319 32.92587,0 61.56978,12.31477 28.64435,12.31479 49.85549,33.50491 21.21151,21.19013 33.53884,49.80529 12.32734,28.61515 12.32734,61.58495 0,32.57715 -12.3432,61.17164 -12.34356,28.59412 -33.58238,49.95364 -21.23926,21.35914 -49.78869,33.53737 -28.5495,12.17824 -61.4447,12.17824 z"
     id="path2"
     inkscape:transform-center-y="-73.220339" />
</svg>
