<?xml version="1.0" encoding="UTF-8" standalone="no"?>
<svg
   xmlns:dc="http://purl.org/dc/elements/1.1/"
   xmlns:cc="http://creativecommons.org/ns#"
   xmlns:rdf="http://www.w3.org/1999/02/22-rdf-syntax-ns#"
   xmlns:svg="http://www.w3.org/2000/svg"
   xmlns="http://www.w3.org/2000/svg"
   xmlns:sodipodi="http://sodipodi.sourceforge.net/DTD/sodipodi-0.dtd"
   xmlns:inkscape="http://www.inkscape.org/namespaces/inkscape"
   height="48"
   viewBox="0 96 960 960"
   width="48"
   version="1.1"
   id="svg4"
   sodipodi:docname="person_money.svg"
   inkscape:version="0.92.4 (5da689c313, 2019-01-14)"
   inkscape:export-filename="C:\Users\nao\Downloads\person_money.png"
   inkscape:export-xdpi="142.222"
   inkscape:export-ydpi="142.222">
  <metadata
     id="metadata10">
    <rdf:RDF>
      <cc:Work
         rdf:about="">
        <dc:format>image/svg+xml</dc:format>
        <dc:type
           rdf:resource="http://purl.org/dc/dcmitype/StillImage" />
      </cc:Work>
    </rdf:RDF>
  </metadata>
  <defs
     id="defs8" />
  <sodipodi:namedview
     pagecolor="#ffffff"
     bordercolor="#666666"
     borderopacity="1"
     objecttolerance="10"
     gridtolerance="10"
     guidetolerance="10"
     inkscape:pageopacity="0"
     inkscape:pageshadow="2"
     inkscape:window-width="1134"
     inkscape:window-height="659"
     id="namedview6"
     showgrid="false"
     inkscape:zoom="4.9166667"
     inkscape:cx="-40.677966"
     inkscape:cy="28.067797"
     inkscape:window-x="700"
     inkscape:window-y="286"
     inkscape:window-maximized="0"
     inkscape:current-layer="svg4" />
  <path
     style="fill:#000000;stroke-width:1"
     d="m 64.40678,896 v -94 c 0,-23.33334 5.833334,-44.5 17.5,-63.5 11.666666,-19 28.5,-33.16666 50.5,-42.5 50,-22 94.5,-37.5 133.5,-46.5 39,-9 78.5,-13.5 118.5,-13.5 40,0 79.33334,4.5 118,13.5 38.66666,9 83,24.5 133,46.5 22,10 39,24.33334 51,43 12,18.66666 18,39.66666 18,63 v 94 z"
     id="path4531"
     inkscape:connector-curvature="0" />
  <path
     style="fill:#000000;stroke-width:1"
     d="m 384.40678,575 c -44,0 -80,-14 -108,-42 -28,-28 -42,-64 -42,-108 0,-44 14,-80 42,-108 28,-28 64,-42 108,-42 44,0 80,14 108,42 28,28 42,64 42,108 0,44 -14,80 -42,108 -28,28 -64,42 -108,42 z"
     id="path4529"
     inkscape:connector-curvature="0" />
  <path
     style="stroke-width:0.46193165"
     inkscape:connector-curvature="0"
     d="m 754.40678,656 v -39.72612 q -29.1017,-5.08125 -46.88607,-22.40369 -17.78437,-17.32244 -24.71334,-44.11447 l 36.03067,-13.85795 q 6.92898,24.02045 21.71079,33.95198 14.78181,9.93153 33.25908,9.93153 20.78692,0 33.02811,-9.4696 12.24119,-9.4696 12.24119,-25.63721 0,-18.01533 -12.93409,-28.87073 -12.93409,-10.85539 -47.57896,-21.47982 -32.33521,-9.70056 -49.19572,-28.87073 -16.8605,-19.17016 -16.8605,-46.88606 0,-24.02045 15.24374,-42.72868 15.24374,-18.70823 46.6551,-23.32755 v -39.26419 h 32.79714 v 39.26419 q 21.71079,4.15739 38.10937,16.39858 16.39857,12.24119 24.71334,33.02811 l -35.1068,14.31988 q -6.46705,-13.85795 -17.32245,-21.01789 -10.85539,-7.15994 -27.48493,-7.15994 -18.93919,0 -29.10169,7.62187 -10.1625,7.62187 -10.1625,21.47982 0,14.78181 11.08636,24.71335 11.08636,9.93153 50.35055,21.94175 32.33522,10.62443 48.73379,29.79459 16.39857,19.17016 16.39857,49.19573 0,30.48749 -17.78436,49.42669 -17.78437,18.93919 -52.42925,24.48237 V 656 Z"
     id="path2-8" />
</svg>
