<?xml version="1.0" encoding="UTF-8" standalone="no"?>
<svg
   xmlns:dc="http://purl.org/dc/elements/1.1/"
   xmlns:cc="http://creativecommons.org/ns#"
   xmlns:rdf="http://www.w3.org/1999/02/22-rdf-syntax-ns#"
   xmlns:svg="http://www.w3.org/2000/svg"
   xmlns="http://www.w3.org/2000/svg"
   xmlns:sodipodi="http://sodipodi.sourceforge.net/DTD/sodipodi-0.dtd"
   xmlns:inkscape="http://www.inkscape.org/namespaces/inkscape"
   height="48"
   viewBox="0 96 960 960"
   width="48"
   version="1.1"
   id="svg4"
   sodipodi:docname="person_money_ru_fill.svg"
   inkscape:version="0.92.4 (5da689c313, 2019-01-14)"
   inkscape:export-filename="C:\Users\nao\Downloads\person_money.png"
   inkscape:export-xdpi="142.222"
   inkscape:export-ydpi="142.222">
  <metadata
     id="metadata10">
    <rdf:RDF>
      <cc:Work
         rdf:about="">
        <dc:format>image/svg+xml</dc:format>
        <dc:type
           rdf:resource="http://purl.org/dc/dcmitype/StillImage" />
      </cc:Work>
    </rdf:RDF>
  </metadata>
  <defs
     id="defs8" />
  <sodipodi:namedview
     pagecolor="#ffffff"
     bordercolor="#666666"
     borderopacity="1"
     objecttolerance="10"
     gridtolerance="10"
     guidetolerance="10"
     inkscape:pageopacity="0"
     inkscape:pageshadow="2"
     inkscape:window-width="1134"
     inkscape:window-height="659"
     id="namedview6"
     showgrid="false"
     inkscape:zoom="4.9166667"
     inkscape:cx="1.3220337"
     inkscape:cy="37.01695"
     inkscape:window-x="625"
     inkscape:window-y="360"
     inkscape:window-maximized="0"
     inkscape:current-layer="svg4" />
  <path
     style="fill:#000000;stroke-width:1.09008873"
     d="M 44.067797,920.40678 V 819.01793 c 0,-25.16745 6.426555,-47.99791 19.279661,-68.4914 12.853107,-20.49349 31.398305,-35.77372 55.635592,-45.8407 55.08475,-23.72931 104.11017,-40.44768 147.07627,-50.15513 42.9661,-9.70744 86.48305,-14.56116 130.55085,-14.56116 44.0678,0 87.40114,4.85372 130,14.56116 42.59886,9.70745 91.44068,26.42582 146.52542,50.15513 24.23729,10.78604 42.96611,26.24605 56.18644,46.38 13.22034,20.13395 19.83051,42.78465 19.83051,67.9521 v 101.38885 z"
     id="path4531"
     inkscape:connector-curvature="0" />
  <path
     style="fill:#000000;stroke-width:1.09008873"
     d="m 396.61017,574.17465 c -48.47458,0 -88.13559,-15.10047 -118.98305,-45.3014 -30.84746,-30.20093 -46.27119,-69.03071 -46.27119,-116.48931 0,-47.45861 15.42373,-86.28839 46.27119,-116.48932 30.84746,-30.20093 70.50847,-45.3014 118.98305,-45.3014 48.47458,0 88.13559,15.10047 118.98305,45.3014 30.84746,30.20093 46.27119,69.03071 46.27119,116.48932 0,47.4586 -15.42373,86.28838 -46.27119,116.48931 -30.84746,30.20093 -70.50847,45.3014 -118.98305,45.3014 z"
     id="path4529"
     inkscape:connector-curvature="0" />
  <path
     style="stroke-width:0.32123727"
     inkscape:connector-curvature="0"
     d="m 749.27404,627.67776 h 21.52298 v -15.41939 q 18.95295,-1.92743 30.19626,-11.72517 11.24329,-9.79773 11.24329,-27.78702 0,-16.70434 -9.59437,-27.78703 -9.59408,-11.08268 -32.59468,-20.39856 -18.20356,-7.70969 -26.07384,-13.81321 -7.87038,-6.1035 -7.87038,-15.74062 0,-8.35217 6.42479,-13.33134 6.42471,-4.97919 17.34677,-4.97919 9.31595,0 16.54375,4.49733 7.22781,4.49732 12.04641,14.13444 l 18.95305,-8.67341 q -6.15396,-13.55461 -14.80238,-19.94819 -8.64804,-6.39327 -21.1763,-8.339 v -14.75861 h -21.52287 v 14.77692 q -17.34676,2.89115 -26.34147,13.19353 -8.99462,10.30273 -8.99462,24.58719 0,16.82961 10.60081,26.9486 10.60082,10.11896 32.76628,18.79237 18.31047,7.70969 25.53828,14.47302 7.22789,6.76334 7.22789,16.36576 0,9.63712 -7.38851,15.25876 -7.38843,5.62166 -20.71978,5.62166 -12.36765,0 -21.6835,-7.06723 -9.31586,-7.06721 -12.8495,-19.9167 l -19.91668,6.74598 q 6.42471,16.38311 17.18614,25.69899 10.76144,9.31588 23.93218,12.64036 z m 11.28768,44.33073 q -28.3132,0 -53.20909,-10.60084 -24.8959,-10.60082 -43.52762,-29.23258 -18.63182,-18.63176 -29.23264,-43.48332 -10.60082,-24.85156 -10.60082,-53.16477 0,-28.63444 10.60082,-53.53033 10.60082,-24.89589 29.18214,-43.38406 18.58132,-18.48783 43.45634,-29.23258 24.87531,-10.74443 53.2155,-10.74443 28.66114,0 53.59492,10.71969 24.93416,10.71969 43.39787,29.16514 18.46411,18.44543 29.19467,43.35417 10.73065,24.90874 10.73065,53.60808 0,28.35753 -10.74445,53.24828 -10.74473,24.89043 -29.23253,43.48333 -18.48819,18.59256 -43.33971,29.19338 -24.85162,10.60084 -53.48605,10.60084 z"
     id="path2" />
</svg>
